<?xml version="1.0" encoding="UTF-8"?>
<svg width="30px" height="30px" viewBox="0 0 30 30" version="1.1" xmlns="http://www.w3.org/2000/svg" xmlns:xlink="http://www.w3.org/1999/xlink">
    <!-- Generator: Sketch 53.2 (72643) - https://sketchapp.com -->
    <title>Email</title>
    <desc>Created with Sketch.</desc>
    <g id="Symbols" stroke="none" stroke-width="1" fill="none" fill-rule="evenodd">
        <g id="Share" transform="translate(-124.000000, -64.000000)" fill="#6E6E6E" fill-rule="nonzero">
            <g id="Email" transform="translate(124.000000, 64.000000)">
                <path d="M15,-7.10542736e-15 C23.2842084,-7.10542736e-15 29.9999438,6.71574795 30,15.0000281 C30,23.2842521 23.2842084,30 15,30 C6.71556661,30 1.59872116e-14,23.2842521 1.59872116e-14,15.0000281 C1.59872116e-14,6.71574795 6.71573536,-7.10542736e-15 15,-7.10542736e-15 Z M15,17.4 L12.7731429,15.5808 L6.40628571,20.6748 C6.63771429,20.8752 6.95014286,21 7.29471429,21 L22.7052857,21 C23.0485714,21 23.3597143,20.8752 23.5898571,20.6748 L17.2268571,15.5808 L15,17.4 Z M23.5937143,9.3252 C23.3622857,9.1236 23.0511429,9 22.7052857,9 L7.29471429,9 C6.95142857,9 6.64028571,9.1248 6.40885714,9.3276 L15,16.2 L23.5937143,9.3252 Z M6,10.0536 L6,20.0232 L12.2138571,15.0948 L6,10.0536 Z M17.7861429,15.0948 L24,20.0232 L24,10.05 L17.7861429,15.0948 Z" id="Combined-Shape"></path>
            </g>
        </g>
    </g>
</svg>