<?xml version="1.0" encoding="UTF-8"?>
<svg width="30px" height="30px" viewBox="0 0 30 30" version="1.1" xmlns="http://www.w3.org/2000/svg" xmlns:xlink="http://www.w3.org/1999/xlink">
    <!-- Generator: Sketch 53.2 (72643) - https://sketchapp.com -->
    <title>facebook-logo-button (1)</title>
    <desc>Created with Sketch.</desc>
    <g id="Symbols" stroke="none" stroke-width="1" fill="none" fill-rule="evenodd">
        <g id="Share" transform="translate(-18.000000, -64.000000)" fill="#6E6E6E" fill-rule="nonzero">
            <g id="facebook-logo-button-(1)" transform="translate(18.000000, 64.000000)">
                <path d="M14.8956,1.77635684e-15 C6.6822,1.77635684e-15 -1.687539e-13,6.6822 -1.687539e-13,14.8956 C-1.687539e-13,23.1084 6.6822,29.7912 14.8956,29.7912 C23.1084,29.7912 29.7912,23.1084 29.7912,14.8956 C29.7912,6.6822 23.1096,1.77635684e-15 14.8956,1.77635684e-15 Z M18.6,15.42 L16.1766,15.42 C16.1766,19.2918 16.1766,24.0576 16.1766,24.0576 L12.5856,24.0576 C12.5856,24.0576 12.5856,19.338 12.5856,15.42 L10.8786,15.42 L10.8786,12.3672 L12.5856,12.3672 L12.5856,10.3926 C12.5856,8.9784 13.2576,6.7686 16.2096,6.7686 L18.8706,6.7788 L18.8706,9.7422 C18.8706,9.7422 17.2536,9.7422 16.9392,9.7422 C16.6248,9.7422 16.1778,9.8994 16.1778,10.5738 L16.1778,12.3678 L18.9138,12.3678 L18.6,15.42 Z" id="Shape"></path>
            </g>
        </g>
    </g>
</svg>