<?xml version="1.0" encoding="UTF-8"?>
<svg width="30px" height="30px" viewBox="0 0 30 30" version="1.1" xmlns="http://www.w3.org/2000/svg" xmlns:xlink="http://www.w3.org/1999/xlink">
    <!-- Generator: Sketch 53.2 (72643) - https://sketchapp.com -->
    <title>instagram-logo (1)</title>
    <desc>Created with Sketch.</desc>
    <g id="Symbols" stroke="none" stroke-width="1" fill="none" fill-rule="evenodd">
        <g id="Share" transform="translate(-18.000000, -119.000000)" fill="#6E6E6E" fill-rule="nonzero">
            <g id="instagram-logo-(1)" transform="translate(18.000000, 119.000000)">
                <path d="M14.8956,1.77635684e-15 C23.1096,1.77635684e-15 29.7912,6.6822 29.7912,14.8956 C29.7912,23.1084 23.1084,29.7912 14.8956,29.7912 C6.6822,29.7912 -1.687539e-13,23.1084 -1.687539e-13,14.8956 C-1.687539e-13,6.6822 6.6822,1.77635684e-15 14.8956,1.77635684e-15 Z M23.367,13.1574 L23.367,9.699 C23.367,7.893 21.8982,6.4248 20.0922,6.4248 L9.6984,6.4248 C7.8924,6.4248 6.4242,7.893 6.4242,9.699 L6.4242,13.1574 L6.4242,20.0934 C6.4242,21.9 7.8924,23.3682 9.6984,23.3682 L20.0928,23.3682 C21.8982,23.3682 23.367,21.9 23.367,20.0934 L23.367,13.1574 Z M14.895,17.8776 C13.251,17.8776 11.9124,16.5396 11.9142,14.895 C11.9148,14.2458 12.1254,13.6464 12.4782,13.1568 C13.0212,12.4056 13.9014,11.9136 14.8968,11.9136 C15.8916,11.9136 16.7724,12.4062 17.3142,13.1574 C17.6658,13.647 17.8782,14.2464 17.8782,14.8956 C17.8782,16.5402 16.5384,17.8776 14.895,17.8776 Z M21.4068,11.2476 L18.5442,11.2572 L18.5346,8.385 L21.033,8.3772 L21.4068,8.376 L21.4068,8.748 L21.4068,11.2476 Z M19.5294,14.8956 C19.5294,14.2812 19.4052,13.6938 19.185,13.1574 L21.7152,13.1574 L21.7152,20.0934 C21.7152,20.9898 20.9862,21.7158 20.0916,21.7158 L9.6978,21.7158 C8.802,21.7158 8.0742,20.9898 8.0742,20.0934 L8.0742,13.1574 L10.6032,13.1574 C10.3848,13.6938 10.2624,14.2812 10.2624,14.8956 C10.2624,17.4498 12.3402,19.5294 14.8956,19.5294 C17.451,19.5294 19.5294,17.4498 19.5294,14.8956 Z" id="Combined-Shape"></path>
            </g>
        </g>
    </g>
</svg>