<?xml version="1.0" encoding="UTF-8"?>
<svg width="177px" height="84px" viewBox="0 0 177 84" version="1.1" xmlns="http://www.w3.org/2000/svg" xmlns:xlink="http://www.w3.org/1999/xlink">
    <!-- Generator: Sketch 53.2 (72643) - https://sketchapp.com -->
    <title>Group 10</title>
    <desc>Created with Sketch.</desc>
    <g id="Concept-1" stroke="none" stroke-width="1" fill="none" fill-rule="evenodd">
        <g id="Concept-1---Works" transform="translate(-50.000000, -23.000000)" fill="#6E6E6E">
            <g id="Group-10" transform="translate(50.000000, 23.000000)">
                <g id="logo">
                    <path d="M94.4296264,40.9293968 L93.3110874,33.1548404 L87.0414198,33.1548404 L85.5740508,43.0449223 L79.3933146,43.0449223 L86.5967625,0.205530398 L93.6223475,0.205530398 L100.825795,43.0449223 L96.646017,43.0449223 L103.493739,83.7687886 L97.4019344,83.7687886 L95.9790311,73.8787068 L89.7093634,73.8787068 L88.2419944,83.7687886 L82.0612583,83.7687886 L89.2647062,40.9293968 L94.4296264,40.9293968 Z M0.244319035,0.205530398 L4.824289,0.205530398 L13.5840374,24.6398502 L13.5840374,0.205530398 L19.0088562,0.205530398 L19.0088562,43.0449223 L14.6512149,43.0449223 L5.84700074,17.4470634 L5.84700074,43.0449223 L0.244319035,43.0449223 L0.244319035,0.205530398 Z M72.5900582,41.4170455 C73.4803321,41.643089 74.2658917,41.9477176 74.9467418,42.3309324 C76.6068039,43.2652942 77.7851339,44.6932596 78.4817672,46.6148716 C79.1784004,48.5364836 79.5267118,51.0839034 79.5267118,54.2572076 L79.5267118,69.8592083 C79.5267118,73.1030303 79.1784004,75.7297816 78.4817672,77.7395409 C77.7851339,79.7493002 76.6216257,81.256597 74.9912075,82.2614767 C73.3607894,83.2663563 71.152347,83.7687886 68.3658141,83.7687886 L59.6060657,83.7687886 L59.6060657,40.9293968 L66.0535962,40.9293968 L66.0535962,5.97033745 L60.050723,5.97033745 L60.050723,0.205530398 L78.504,0.205530398 L78.504,5.97033745 L72.5900582,5.97033745 L72.5900582,41.4170455 Z M49.1566197,43.0449223 L56.0043417,83.7687886 L49.912537,83.7687886 L48.4896337,73.8787068 L42.2199661,73.8787068 L40.7525971,83.7687886 L34.5718609,83.7687886 L41.7753088,40.9293968 L43.5094722,40.9293968 L43.5094722,0.205530398 L58.6278197,0.205530398 L58.6278197,5.70589676 L50.0459342,5.70589676 L50.0459342,18.0288329 L56.8047248,18.0288329 L56.8047248,23.4763112 L50.0459342,23.4763112 L50.0459342,37.7032203 L58.7167511,37.7032203 L58.7167511,43.0449223 L49.1566197,43.0449223 Z M30.4250201,43.0449223 L31.0590684,83.7687886 L26.1678384,83.7687886 L25.6342496,53.9927669 L20.5206909,83.7687886 L16.5632412,83.7687886 L11.360751,53.8869906 L10.871628,83.7687886 L5.9359322,83.7687886 L6.55845239,40.9293968 L13.3617087,40.9293968 L18.4752674,70.5996422 L23.7666891,40.9293968 L24.4781407,40.9293968 L24.4781407,0.205530398 L39.5964882,0.205530398 L39.5964882,5.70589676 L31.0146027,5.70589676 L31.0146027,18.0288329 L37.7733933,18.0288329 L37.7733933,23.4763112 L31.0146027,23.4763112 L31.0146027,37.7032203 L39.6854196,37.7032203 L39.6854196,43.0449223 L30.4250201,43.0449223 Z M92.5996358,28.1833555 L87.7084057,28.1833555 L90.1540207,10.2013885 L92.5996358,28.1833555 Z M47.7781821,68.9072218 L45.3325671,50.9252549 L42.886952,68.9072218 L47.7781821,68.9072218 Z M68.1879512,78.3213104 C69.6405055,78.3213104 70.6928506,78.021614 71.3450178,77.4222121 C71.9971851,76.8228102 72.4121944,75.985423 72.5900582,74.9100255 C72.767922,73.834628 72.8568526,72.2391851 72.8568526,70.123649 L72.8568526,53.7283262 C72.8568526,51.8243437 72.7531003,50.378749 72.5455925,49.3914989 C72.3380847,48.4042487 71.9008428,47.6726367 71.2338535,47.1966411 C70.5668643,46.7206455 69.5219301,46.4826513 68.0990197,46.4826513 L66.1425277,46.4826513 L66.1425277,78.3213104 L68.1879512,78.3213104 Z M95.2675794,68.9072218 L92.8219644,50.9252549 L90.3763494,68.9072218 L95.2675794,68.9072218 Z M107.184394,40.9293968 L113.720856,40.9293968 L113.720856,58.8055874 L121.057702,58.8055874 L121.057702,40.9293968 L127.638629,40.9293968 L127.638629,83.7687886 L121.057702,83.7687886 L121.057702,64.4117301 L113.720856,64.4117301 L113.720856,83.7687886 L107.184394,83.7687886 L107.184394,40.9293968 Z M138.532733,40.9293968 L145.558318,40.9293968 L152.761766,83.7687886 L146.669961,83.7687886 L145.247058,73.8787068 L138.97739,73.8787068 L137.510021,83.7687886 L131.329285,83.7687886 L138.532733,40.9293968 Z M144.535606,68.9072218 L142.089991,50.9252549 L139.644376,68.9072218 L144.535606,68.9072218 Z M156.363489,40.9293968 L165.034306,40.9293968 C168.828734,40.9293968 171.659691,41.7844131 173.52726,43.4944715 C175.39483,45.2045298 176.328601,48.1397921 176.328601,52.3003464 C176.328601,55.0152844 175.995112,57.2277494 175.328122,58.9378078 C174.661133,60.6478661 173.512447,61.8907249 171.882028,62.6664215 L176.906656,83.7687886 L170.325728,83.7687886 L166.012552,64.1472894 L162.899951,64.1472894 L162.899951,83.7687886 L156.363489,83.7687886 L156.363489,40.9293968 Z M164.989841,59.2815807 C166.857411,59.2815807 168.183958,58.7703338 168.969523,57.7478247 C169.755088,56.7253156 170.147865,55.0505413 170.147865,52.7234516 C170.147865,50.4668797 169.799554,48.8273638 169.102921,47.8048547 C168.406287,46.7823456 167.153848,46.2710987 165.345567,46.2710987 L162.899951,46.2710987 L162.899951,59.2815807 L164.989841,59.2815807 Z" id="NEETA-MADAHAR"></path>
                </g>
            </g>
        </g>
    </g>
</svg>