<?xml version="1.0" encoding="UTF-8"?>
<svg width="30px" height="30px" viewBox="0 0 30 30" version="1.1" xmlns="http://www.w3.org/2000/svg" xmlns:xlink="http://www.w3.org/1999/xlink">
    <!-- Generator: Sketch 53.2 (72643) - https://sketchapp.com -->
    <title>Pinterest</title>
    <desc>Created with Sketch.</desc>
    <g id="Symbols" stroke="none" stroke-width="1" fill="none" fill-rule="evenodd">
        <g id="Share" transform="translate(-71.000000, -64.000000)" fill="#6E6E6E" fill-rule="nonzero">
            <g id="Pinterest" transform="translate(71.000000, 64.000000)">
                <path d="M15,0 C23.2842084,0 29.9999438,6.71574795 30,15.0000281 C30,23.2842521 23.2842084,30 15,30 C6.71556661,30 0,23.2842521 0,15.0000281 C0,6.71574795 6.71573536,0 15,0 Z M16.3796848,19.5476654 C20.9991892,19.8950802 23.5797253,15.0640438 22.9494123,10.603543 C22.3895475,6.65139778 18.3347147,4.63903559 14.0145767,5.10929212 C10.5983783,5.48108429 7.19256888,8.16932715 7.05074199,12.009035 C6.96261705,14.3548893 7.64720056,16.1143806 9.94129185,16.6089139 C10.9359408,14.9003889 9.62073413,14.524827 9.41574673,13.2868099 C8.57346867,8.2229573 15.4229218,4.76675276 19.0075654,8.30357845 C21.4881405,10.7530239 19.8549604,18.2852709 15.8541396,17.5033865 C12.0225911,16.754424 17.7302965,10.7579999 14.6715081,9.5813533 C12.1854026,8.6242536 10.864924,12.5072376 12.0435757,14.436767 C11.3523764,17.7549003 9.86376257,20.880528 10.4668887,25.0420168 C12.4206264,23.6632142 13.0802455,21.0233742 13.6202628,18.2699408 C14.6018351,18.8498702 15.1273802,19.4530712 16.3796848,19.5476654 Z" id="Combined-Shape"></path>
            </g>
        </g>
    </g>
</svg>