<?xml version="1.0" encoding="UTF-8"?>
<svg width="30px" height="30px" viewBox="0 0 30 30" version="1.1" xmlns="http://www.w3.org/2000/svg" xmlns:xlink="http://www.w3.org/1999/xlink">
    <!-- Generator: Sketch 53.2 (72643) - https://sketchapp.com -->
    <title>Twitter logo</title>
    <desc>Created with Sketch.</desc>
    <g id="Symbols" stroke="none" stroke-width="1" fill="none" fill-rule="evenodd">
        <g id="Share" transform="translate(-71.000000, -119.000000)" fill="#6E6E6E" fill-rule="nonzero">
            <g id="Twitter-logo" transform="translate(71.000000, 119.000000)">
                <path d="M15,-5.32907052e-15 C23.2842084,-5.32907052e-15 29.9999438,6.71574795 30,15.0000281 C30,23.2842521 23.2842084,30 15,30 C6.71556661,30 1.42108547e-14,23.2842521 1.42108547e-14,15.0000281 C1.42108547e-14,6.71574795 6.71573536,-5.32907052e-15 15,-5.32907052e-15 Z M24,9.65738462 C23.330625,9.93846154 22.617375,10.1247692 21.87375,10.2152308 C22.63875,9.778 23.222625,9.09092308 23.497125,8.26276923 C22.783875,8.66984615 21.996375,8.95738462 21.157125,9.11784615 C20.479875,8.42753846 19.514625,8 18.461625,8 C16.418625,8 14.773875,9.58738462 14.773875,11.5333846 C14.773875,11.8133846 14.798625,12.0826154 14.859375,12.3389231 C11.7915,12.1956923 9.076875,10.7881538 7.25325,8.644 C6.934875,9.17276923 6.748125,9.778 6.748125,10.4295385 C6.748125,11.6529231 7.40625,12.7373846 8.38725,13.3652308 C7.794375,13.3544615 7.21275,13.1896923 6.72,12.9301538 C6.72,12.9409231 6.72,12.9549231 6.72,12.9689231 C6.72,14.6855385 7.999125,16.1113846 9.6765,16.4398462 C9.376125,16.5184615 9.04875,16.5561538 8.709,16.5561538 C8.47275,16.5561538 8.23425,16.5432308 8.010375,16.4958462 C8.4885,17.8947692 9.84525,18.9232308 11.4585,18.9566154 C10.203,19.8967692 8.608875,20.4632308 6.883125,20.4632308 C6.5805,20.4632308 6.29025,20.4503077 6,20.4147692 C7.634625,21.4238462 9.571875,22 11.661,22 C18.4515,22 22.164,16.6153846 22.164,11.948 C22.164,11.7918462 22.158375,11.6410769 22.1505,11.4913846 C22.882875,10.9938462 23.49825,10.3724615 24,9.65738462 Z" id="Combined-Shape"></path>
            </g>
        </g>
    </g>
</svg>